<?xml version="1.0" encoding="UTF-8"?>
<svg version="1.1" xmlns="http://www.w3.org/2000/svg" width="500" height="500">
<path d="M0 0 C165 0 330 0 500 0 C500 165 500 330 500 500 C335 500 170 500 0 500 C0 335 0 170 0 0 Z " fill="#FE904C" transform="translate(0,0)"/>
<path d="M0 0 C13.54715832 11.61184999 20.7189486 27.27690418 22.1328125 44.890625 C23.40769542 68.45739275 19.89927218 89.68778904 3.7578125 107.953125 C-5.80877322 117.2045325 -19.87834999 122.28488566 -32.9296875 122.203125 C-33.86345215 122.19748535 -34.7972168 122.1918457 -35.75927734 122.18603516 C-51.56141531 121.9099556 -64.04835233 117.34147749 -75.5859375 106.3515625 C-90.60395704 90.15061676 -93.68098748 68.27329377 -92.97216797 47.05273438 C-92.18038557 30.74569964 -85.99737735 13.80254279 -73.8671875 2.51171875 C-52.45789806 -14.8415139 -22.37298493 -16.45968918 0 0 Z " fill="#020100" transform="translate(224.8671875,302.109375)"/>
<path d="M0 0 C6.6 0 13.2 0 20 0 C20 9.24 20 18.48 20 28 C38.48 28 56.96 28 76 28 C76 54.07 76 80.14 76 107 C69.4 107 62.8 107 56 107 C56 104.36 56 101.72 56 99 C44.12 99 32.24 99 20 99 C20 115.5 20 132 20 149 C13.4 149 6.8 149 0 149 C0 132.5 0 116 0 99 C-11.88 99 -23.76 99 -36 99 C-36 101.97 -36 104.94 -36 108 C-42.27 108 -48.54 108 -55 108 C-55 81.6 -55 55.2 -55 28 C-36.85 28 -18.7 28 0 28 C0 18.76 0 9.52 0 0 Z " fill="#010100" transform="translate(80,72)"/>
<path d="M0 0 C23.76 0 47.52 0 72 0 C72 5.28 72 10.56 72 16 C68.37 16 64.74 16 61 16 C61 21.61 61 27.22 61 33 C65.95 33 70.9 33 76 33 C76 38.61 76 44.22 76 50 C71.05 50 66.1 50 61 50 C61 59.24 61 68.48 61 78 C65.62 78 70.24 78 75 78 C75 81.96 75 85.92 75 90 C90.18 90 105.36 90 121 90 C121 95.94 121 101.88 121 108 C105.82 108 90.64 108 75 108 C75 111.96 75 115.92 75 120 C95.46 120 115.92 120 137 120 C137 125.94 137 131.88 137 138 C89.48 138 41.96 138 -7 138 C-7 132.06 -7 126.12 -7 120 C13.46 120 33.92 120 55 120 C55 116.04 55 112.08 55 108 C39.82 108 24.64 108 9 108 C9 102.06 9 96.12 9 90 C24.18 90 39.36 90 55 90 C55 87.03 55 84.06 55 81 C51.37 81 47.74 81 44 81 C44 70.77 44 60.54 44 50 C39.05 50.33 34.1 50.66 29 51 C28.46375 52.77375 27.9275 54.5475 27.375 56.375 C23.51425167 67.87596609 16.94503769 78.16264657 6 84 C3.27895936 83.76599051 2.18510197 83.17395605 0.18359375 81.29296875 C-0.39261719 80.59816406 -0.96882812 79.90335937 -1.5625 79.1875 C-2.14128906 78.50042969 -2.72007812 77.81335938 -3.31640625 77.10546875 C-4.9203625 75.09959307 -6.47324382 73.06506535 -8 71 C-7.27554688 70.52691406 -6.55109375 70.05382812 -5.8046875 69.56640625 C1.51678933 64.5585161 7.1375505 59.58734851 10 51 C5.05 50.67 0.1 50.34 -5 50 C-5 44.39 -5 38.78 -5 33 C0.94 33 6.88 33 13 33 C13 27.72 13 22.44 13 17 C8.71 17 4.42 17 0 17 C0 11.39 0 5.78 0 0 Z " fill="#060301" transform="translate(184,78)"/>
<path d="M0 0 C6.6 0 13.2 0 20 0 C20.02314764 4.49835774 20.04300216 8.99650287 20.05493164 13.49487305 C20.05991292 15.02027086 20.06670038 16.54566401 20.07543945 18.07104492 C20.08778081 20.28305216 20.09329038 22.49499547 20.09765625 24.70703125 C20.10281754 25.37209183 20.10797882 26.0371524 20.11329651 26.72236633 C20.11396751 32.58434616 19.53811471 38.08073823 19 44 C39.79 44 60.58 44 82 44 C82 50.6 82 57.2 82 64 C63.19 64 44.38 64 25 64 C30.229955 76.48845189 30.229955 76.48845189 36.6875 88.1875 C37.1012085 88.83912109 37.51491699 89.49074219 37.94116211 90.16210938 C42.53261503 97.15698741 48.05772604 103.14174547 54 109 C54.74894531 109.75925781 55.49789062 110.51851563 56.26953125 111.30078125 C64.43839104 119.10590702 74.89231438 124.1483109 85 129 C84.64808594 129.46148437 84.29617188 129.92296875 83.93359375 130.3984375 C79.81655641 135.83765655 75.88391248 141.39245772 72 147 C46.17832712 139.10474699 28.00259696 115.60820157 15.77880859 92.77294922 C13.93216462 89.20084994 12.51222868 86.04266635 12 82 C11.34 82 10.68 82 10 82 C9.88785156 82.52464844 9.77570313 83.04929687 9.66015625 83.58984375 C6.19102447 97.21695619 -1.49786974 109.77539372 -11 120 C-11.83144531 120.91136719 -12.66289062 121.82273437 -13.51953125 122.76171875 C-23.81330537 133.56792087 -35.1822743 141.35355395 -49 147 C-49.88751953 145.91332031 -49.88751953 145.91332031 -50.79296875 144.8046875 C-51.97826172 143.35449219 -51.97826172 143.35449219 -53.1875 141.875 C-53.96480469 140.92367187 -54.74210937 139.97234375 -55.54296875 138.9921875 C-58.01436626 135.98250469 -60.50342301 132.98879732 -63 130 C-61.92363281 129.46632812 -60.84726562 128.93265625 -59.73828125 128.3828125 C-49.9896875 123.44966761 -41.30966414 118.09929289 -33 111 C-32.26523437 110.37867188 -31.53046875 109.75734375 -30.7734375 109.1171875 C-17.50066241 96.90200405 -11.55971774 80.67915323 -6 64 C-24.48 64 -42.96 64 -62 64 C-62 57.4 -62 50.8 -62 44 C-42.2 44 -22.4 44 -2 44 C-1.40483034 33.28694607 -0.82440392 22.59414127 -0.4375 11.875 C-0.37272461 10.13669922 -0.37272461 10.13669922 -0.30664062 8.36328125 C-0.20296559 5.5755748 -0.10125686 2.78779533 0 0 Z " fill="#040201" transform="translate(398,73)"/>
<path d="M0 0 C8.58 0 17.16 0 26 0 C26.33 18.15 26.66 36.3 27 55 C35.07346328 44.50835892 35.07346328 44.50835892 43.125 34 C43.6514209 33.31139893 44.1778418 32.62279785 44.72021484 31.91333008 C49.36003815 25.84178603 53.99329405 19.76523776 58.625 13.6875 C59.31223145 12.78580078 59.99946289 11.88410156 60.70751953 10.95507812 C61.35317871 10.10751953 61.99883789 9.25996094 62.6640625 8.38671875 C63.23592285 7.63608154 63.8077832 6.88544434 64.39697266 6.11206055 C66.04014918 4.03664432 66.04014918 4.03664432 67.30737305 1.75024414 C69 0 69 0 71.91088867 -0.45410156 C73.0682251 -0.4331543 74.22556152 -0.41220703 75.41796875 -0.390625 C77.29838867 -0.37128906 77.29838867 -0.37128906 79.21679688 -0.3515625 C80.52712891 -0.31804687 81.83746094 -0.28453125 83.1875 -0.25 C84.5227601 -0.22993307 85.85804883 -0.21168262 87.19335938 -0.1953125 C90.46296146 -0.14809803 93.73112192 -0.08225184 97 0 C95.64255131 2.91616587 94.08255825 5.34662063 92.09375 7.87109375 C91.51987549 8.60360352 90.94600098 9.33611328 90.35473633 10.09082031 C89.43664185 11.25242676 89.43664185 11.25242676 88.5 12.4375 C87.22235747 14.06617191 85.94501526 15.69507946 84.66796875 17.32421875 C83.72703369 18.52183838 83.72703369 18.52183838 82.76708984 19.74365234 C79.63322865 23.74519216 76.54962245 27.78474981 73.46484375 31.82421875 C71.66026622 34.17024371 69.81081335 36.4748617 67.94140625 38.76953125 C67.43053467 39.40213867 66.91966309 40.03474609 66.39331055 40.68652344 C65.40420006 41.90863711 64.40730748 43.12450599 63.40161133 44.33300781 C60.77479898 47.59164542 60 48.66106035 60 53 C61.18582071 55.62121322 61.18582071 55.62121322 62.859375 58.375 C63.47417725 59.43195068 64.08897949 60.48890137 64.72241211 61.57788086 C65.39151611 62.70718018 66.06062012 63.83647949 66.75 65 C67.44277812 66.18264974 68.13491032 67.36567807 68.82641602 68.54907227 C73.75376035 76.96320199 78.76031951 85.33056637 83.796875 93.6796875 C87.41492341 99.68097941 91.00897465 105.69642956 94.59060669 111.71951294 C95.31726997 112.94044392 96.04501943 114.16072916 96.77389526 115.38034058 C97.79341162 117.08656045 98.80889923 118.79518564 99.82421875 120.50390625 C100.70726685 121.98612671 100.70726685 121.98612671 101.6081543 123.49829102 C103 126 103 126 104 129 C80.41990421 131.3122391 80.41990421 131.3122391 74.04833984 127.97900391 C70.96166988 124.92584827 69.63858367 120.72765599 68.15478516 116.74121094 C65.93896534 111.48133252 62.89373433 106.62762371 60.00915527 101.71228027 C58.96916306 99.92928417 57.94648643 98.13767887 56.93066406 96.34082031 C52.46185141 88.44436397 47.80497605 80.69593674 43 73 C41.32408505 74.65814502 39.65919702 76.32523931 38 78 C37.52984467 78.46625793 37.05968933 78.93251587 36.57528687 79.41290283 C28.33113918 87.82247962 25.61485312 94.63171521 25.67773438 106.3828125 C25.72144879 108.04690716 25.76638482 109.71097014 25.8125 111.375 C25.8194775 113.09373695 25.82146122 114.81250169 25.81835938 116.53125 C25.81234507 120.69315093 25.90795879 124.83460031 26 129 C17.42 129 8.84 129 0 129 C0 86.43 0 43.86 0 0 Z " fill="#030201" transform="translate(272,293)"/>
<path d="M0 0 C8.82114376 6.286035 13.0584017 16.11610772 15.25170898 26.42285156 C15.95120008 30.62228303 16.04696079 34.77297449 16.0390625 39.0234375 C16.03664551 40.39278442 16.03664551 40.39278442 16.03417969 41.78979492 C15.81246243 54.18531118 12.90908361 67.98737199 4.30859375 77.4453125 C-2.99763514 83.9011727 -10.14646439 85.85692612 -19.81640625 85.40625 C-28.07304651 84.21494785 -33.3041226 79.77803787 -38.546875 73.48046875 C-47.67663523 60.30411174 -48.88111249 43.59589502 -46.8359375 28.11328125 C-44.63164065 16.60334486 -40.70974469 7.28179924 -31.3359375 -0.1015625 C-21.50295486 -6.70664003 -10.00834063 -5.62474025 0 0 Z " fill="#FC8F4C" transform="translate(205.3359375,317.1015625)"/>
<path d="M0 0 C5.94 0 11.88 0 18 0 C18.09056026 9.51022088 18.16386499 19.02015289 18.20724869 28.53070831 C18.22807628 32.94739368 18.25630492 37.3637674 18.30175781 41.78027344 C18.34538889 46.04671774 18.36917339 50.31286327 18.37950897 54.57951355 C18.38686951 56.20294392 18.40124281 57.82635893 18.42292023 59.44966125 C18.62593006 75.2895459 18.62593006 75.2895459 14 82 C12.0703125 83.62109375 12.0703125 83.62109375 10.125 84.4375 C9.48820312 84.72496094 8.85140625 85.01242188 8.1953125 85.30859375 C2.88105672 86.98230064 -2.34739068 87.13213074 -7.875 87.0625 C-8.56335938 87.05798828 -9.25171875 87.05347656 -9.9609375 87.04882812 C-11.64066335 87.03716336 -13.32034375 87.01923271 -15 87 C-15.64715133 84.9170757 -16.29267166 82.83364461 -16.9375 80.75 C-17.29714844 79.58984375 -17.65679687 78.4296875 -18.02734375 77.234375 C-18.74716125 74.84076501 -19.39378192 72.4248723 -20 70 C-13.73 69.67 -7.46 69.34 -1 69 C-0.67 46.23 -0.34 23.46 0 0 Z " fill="#060301" transform="translate(296,74)"/>
<path d="M0 0 C11.88 0 23.76 0 36 0 C36 11.55 36 23.1 36 35 C24.12 35 12.24 35 0 35 C0 23.45 0 11.9 0 0 Z " fill="#F78C4A" transform="translate(100,118)"/>
<path d="M0 0 C11.88 0 23.76 0 36 0 C36 11.55 36 23.1 36 35 C24.12 35 12.24 35 0 35 C0 23.45 0 11.9 0 0 Z " fill="#F78C4A" transform="translate(44,118)"/>
<path d="M0 0 C5.61 0 11.22 0 17 0 C17 17.49 17 34.98 17 53 C11.39 53 5.78 53 0 53 C0 35.51 0 18.02 0 0 Z " fill="#000000" transform="translate(267,82)"/>
<path d="M0 0 C3.85082082 1.69551066 6.99099261 4.08164384 10.3046875 6.65234375 C11.00787109 7.19117187 11.71105469 7.73 12.43554688 8.28515625 C25.39526961 18.31082627 25.39526961 18.31082627 28.6171875 22.15234375 C28.6171875 26.15234375 28.6171875 26.15234375 26.5703125 28.4765625 C25.67828125 29.25644531 24.78625 30.03632812 23.8671875 30.83984375 C22.98546875 31.62746094 22.10375 32.41507813 21.1953125 33.2265625 C18.84516074 34.98205465 17.47347184 35.75860362 14.6171875 36.15234375 C14.12992187 35.55808594 13.64265625 34.96382812 13.140625 34.3515625 C8.08555593 28.4417272 2.78319702 23.65758048 -3.42041016 18.99682617 C-7.04153985 16.26946783 -10.24956889 13.43282625 -13.3828125 10.15234375 C-11.66974096 8.44527246 -9.94058962 6.76342784 -8.1953125 5.08984375 C-7.71255859 4.60451172 -7.22980469 4.11917969 -6.73242188 3.61914062 C-4.53842032 1.54293782 -3.07535213 0.19662087 0 0 Z " fill="#040201" transform="translate(441.3828125,75.84765625)"/>
<path d="M0 0 C4.62 0 9.24 0 14 0 C14 5.61 14 11.22 14 17 C9.38 17 4.76 17 0 17 C0 11.39 0 5.78 0 0 Z " fill="#EC8647" transform="translate(214,94)"/>
</svg>
