<?xml version="1.0" encoding="UTF-8"?>
<svg version="1.1" xmlns="http://www.w3.org/2000/svg" width="500" height="500">
<path d="M0 0 C165 0 330 0 500 0 C500 165 500 330 500 500 C335 500 170 500 0 500 C0 335 0 170 0 0 Z " fill="#FE904C" transform="translate(0,0)"/>
<path d="M0 0 C6.27 0 12.54 0 19 0 C19 3.3 19 6.6 19 10 C39.13 10 59.26 10 80 10 C80 20.89 80 31.78 80 43 C74.06 43 68.12 43 62 43 C62 46.63 62 50.26 62 54 C56.06 54.33 50.12 54.66 44 55 C45.52625 56.2375 47.0525 57.475 48.625 58.75 C53.25890866 62.54848284 57.86612534 66.37644393 62.4375 70.25 C63.02805176 70.74467773 63.61860352 71.23935547 64.22705078 71.74902344 C67.53707159 74.56940741 70.59460195 77.33345974 73 81 C71.65432077 85.03703769 69.63347727 85.91101516 66.125 88.25 C65.05507812 88.97703125 63.98515625 89.7040625 62.8828125 90.453125 C61.45582031 91.21882813 61.45582031 91.21882813 60 92 C57 91 57 91 54.79418945 87.98779297 C52.57909299 85.22541067 52.12873283 85.02766362 48.40307617 84.22705078 C47.03360071 84.1864677 45.66292848 84.17741334 44.29296875 84.1953125 C43.56757401 84.18160614 42.84217926 84.16789978 42.09480286 84.15377808 C39.79173247 84.11656796 37.49082755 84.12018586 35.1875 84.125 C33.62040914 84.1068665 32.05334677 84.08606173 30.48632812 84.0625 C26.65719073 84.01073498 22.82946802 83.99556298 19 84 C19 88.62 19 93.24 19 98 C35.17 98 51.34 98 68 98 C68 103.61 68 109.22 68 115 C51.83 115 35.66 115 19 115 C19 118.96 19 122.92 19 127 C39.13 127 59.26 127 80 127 C80 132.28 80 137.56 80 143 C33.8 143 -12.4 143 -60 143 C-60 137.72 -60 132.44 -60 127 C-40.2 127 -20.4 127 0 127 C0 122.71 0 118.42 0 114 C-15.18 114 -30.36 114 -46 114 C-46 108.72 -46 103.44 -46 98 C-31.15 98 -16.3 98 -1 98 C-1 93.71 -1 89.42 -1 85 C-3.65095703 85.24556641 -3.65095703 85.24556641 -6.35546875 85.49609375 C-15.0091942 86.16176494 -23.63828214 86.10969572 -32.3125 86.0625 C-33.93945173 86.05747003 -35.56640499 86.0529098 -37.19335938 86.04882812 C-41.12897603 86.03881383 -45.06437522 86.019219 -49 86 C-49 80.39 -49 74.78 -49 69 C-41.41 69 -33.82 69 -26 69 C-25.34 67.02 -24.68 65.04 -24 63 C-22.68 60.03 -21.36 57.06 -20 54 C-27.26 54 -34.52 54 -42 54 C-42 50.37 -42 46.74 -42 43 C-47.94 43 -53.88 43 -60 43 C-60 32.11 -60 21.22 -60 10 C-40.2 10 -20.4 10 0 10 C0 6.7 0 3.4 0 0 Z " fill="#040201" transform="translate(160,73)"/>
<path d="M0 0 C6.27 0 12.54 0 19 0 C19 8.58 19 17.16 19 26 C37.48 26 55.96 26 75 26 C75.16043524 52.34257466 75.16043524 52.34257466 75.1953125 63.59570312 C75.21919767 71.26581937 75.24741469 78.93574409 75.30175781 86.60571289 C75.34530867 92.79137327 75.36915695 98.97682818 75.37950897 105.16263008 C75.38688368 107.51927486 75.40128472 109.87590875 75.42292023 112.23246574 C75.45207614 115.54055716 75.45595079 118.84780605 75.45410156 122.15600586 C75.46848267 123.1241774 75.48286377 124.09234894 75.49768066 125.08985901 C75.46018674 131.31323243 74.5433626 136.74674439 71 142 C68.44876532 143.87654047 66.0018848 145.01300891 63 146 C61.47632813 146.53947266 61.47632813 146.53947266 59.921875 147.08984375 C55.03176061 148.46017571 50.1000029 148.214525 45.0625 148.125 C44.09248047 148.11597656 43.12246094 148.10695312 42.12304688 148.09765625 C39.74843593 148.07426107 37.37435224 148.04148176 35 148 C34.35334337 145.75023648 33.70770477 143.50018033 33.0625 141.25 C32.70285156 139.99703125 32.34320313 138.7440625 31.97265625 137.453125 C31.27420119 134.97346927 30.61547528 132.50021864 30 130 C30.72179443 129.97494385 31.44358887 129.9498877 32.18725586 129.92407227 C35.437535 129.80848698 38.68749688 129.68559226 41.9375 129.5625 C43.07380859 129.52318359 44.21011719 129.48386719 45.38085938 129.44335938 C47.00024414 129.38051758 47.00024414 129.38051758 48.65234375 129.31640625 C49.65257568 129.27974854 50.65280762 129.24309082 51.68334961 129.20532227 C53.96069188 129.25328159 53.96069188 129.25328159 55 128 C55.08737645 126.14630389 55.10698153 124.28932459 55.09765625 122.43359375 C55.09443359 121.30888672 55.09121094 120.18417969 55.08789062 119.02539062 C55.07951172 117.84138672 55.07113281 116.65738281 55.0625 115.4375 C55.05798828 114.24962891 55.05347656 113.06175781 55.04882812 111.83789062 C55.03699686 108.89190588 55.01906076 105.94594684 55 103 C50.38 106.63 45.76 110.26 41 114 C37.68282742 110.68282742 34.94585395 107.76152256 32.125 104.125 C27.45029295 98.30741041 22.24712396 93.1278865 16.87744141 87.95166016 C16.24628418 87.33726074 15.61512695 86.72286133 14.96484375 86.08984375 C14.3937085 85.54191162 13.82257324 84.99397949 13.23413086 84.42944336 C12 83 12 83 12 81 C11.34 81 10.68 81 10 81 C9.74605469 81.87914062 9.49210937 82.75828125 9.23046875 83.6640625 C7.20314838 89.16035327 3.57338443 93.41033193 0 98 C-0.82177734 99.07507813 -0.82177734 99.07507813 -1.66015625 100.171875 C-7.41037524 107.23602609 -15.33099225 113.98331232 -24 117 C-25.15628906 115.71802734 -25.15628906 115.71802734 -26.3359375 114.41015625 C-27.34880235 113.29412924 -28.36183173 112.17825156 -29.375 111.0625 C-29.88289063 110.49853516 -30.39078125 109.93457031 -30.9140625 109.35351562 C-33.62684887 106.26615288 -33.62684887 106.26615288 -37 104 C-37 118.52 -37 133.04 -37 148 C-42.94 148 -48.88 148 -55 148 C-55 107.74 -55 67.48 -55 26 C-36.85 26 -18.7 26 0 26 C0 17.42 0 8.84 0 0 Z " fill="#010100" transform="translate(319,73)"/>
<path d="M0 0 C13.54715832 11.61184999 20.7189486 27.27690418 22.1328125 44.890625 C23.40769542 68.45739275 19.89927218 89.68778904 3.7578125 107.953125 C-5.80877322 117.2045325 -19.87834999 122.28488566 -32.9296875 122.203125 C-33.86345215 122.19748535 -34.7972168 122.1918457 -35.75927734 122.18603516 C-51.56141531 121.9099556 -64.04835233 117.34147749 -75.5859375 106.3515625 C-90.60395704 90.15061676 -93.68098748 68.27329377 -92.97216797 47.05273438 C-92.18038557 30.74569964 -85.99737735 13.80254279 -73.8671875 2.51171875 C-52.45789806 -14.8415139 -22.37298493 -16.45968918 0 0 Z " fill="#020100" transform="translate(224.8671875,302.109375)"/>
<path d="M0 0 C8.58 0 17.16 0 26 0 C26.33 18.15 26.66 36.3 27 55 C35.07346328 44.50835892 35.07346328 44.50835892 43.125 34 C43.6514209 33.31139893 44.1778418 32.62279785 44.72021484 31.91333008 C49.36003815 25.84178603 53.99329405 19.76523776 58.625 13.6875 C59.31223145 12.78580078 59.99946289 11.88410156 60.70751953 10.95507812 C61.35317871 10.10751953 61.99883789 9.25996094 62.6640625 8.38671875 C63.23592285 7.63608154 63.8077832 6.88544434 64.39697266 6.11206055 C66.04014918 4.03664432 66.04014918 4.03664432 67.30737305 1.75024414 C69 0 69 0 71.91088867 -0.45410156 C73.0682251 -0.4331543 74.22556152 -0.41220703 75.41796875 -0.390625 C77.29838867 -0.37128906 77.29838867 -0.37128906 79.21679688 -0.3515625 C80.52712891 -0.31804687 81.83746094 -0.28453125 83.1875 -0.25 C84.5227601 -0.22993307 85.85804883 -0.21168262 87.19335938 -0.1953125 C90.46296146 -0.14809803 93.73112192 -0.08225184 97 0 C95.64255131 2.91616587 94.08255825 5.34662063 92.09375 7.87109375 C91.51987549 8.60360352 90.94600098 9.33611328 90.35473633 10.09082031 C89.43664185 11.25242676 89.43664185 11.25242676 88.5 12.4375 C87.22235747 14.06617191 85.94501526 15.69507946 84.66796875 17.32421875 C83.72703369 18.52183838 83.72703369 18.52183838 82.76708984 19.74365234 C79.63322865 23.74519216 76.54962245 27.78474981 73.46484375 31.82421875 C71.66026622 34.17024371 69.81081335 36.4748617 67.94140625 38.76953125 C67.43053467 39.40213867 66.91966309 40.03474609 66.39331055 40.68652344 C65.40420006 41.90863711 64.40730748 43.12450599 63.40161133 44.33300781 C60.77479898 47.59164542 60 48.66106035 60 53 C61.18582071 55.62121322 61.18582071 55.62121322 62.859375 58.375 C63.47417725 59.43195068 64.08897949 60.48890137 64.72241211 61.57788086 C65.39151611 62.70718018 66.06062012 63.83647949 66.75 65 C67.44277812 66.18264974 68.13491032 67.36567807 68.82641602 68.54907227 C73.75376035 76.96320199 78.76031951 85.33056637 83.796875 93.6796875 C87.41492341 99.68097941 91.00897465 105.69642956 94.59060669 111.71951294 C95.31726997 112.94044392 96.04501943 114.16072916 96.77389526 115.38034058 C97.79341162 117.08656045 98.80889923 118.79518564 99.82421875 120.50390625 C100.70726685 121.98612671 100.70726685 121.98612671 101.6081543 123.49829102 C103 126 103 126 104 129 C80.41990421 131.3122391 80.41990421 131.3122391 74.04833984 127.97900391 C70.96166988 124.92584827 69.63858367 120.72765599 68.15478516 116.74121094 C65.93896534 111.48133252 62.89373433 106.62762371 60.00915527 101.71228027 C58.96916306 99.92928417 57.94648643 98.13767887 56.93066406 96.34082031 C52.46185141 88.44436397 47.80497605 80.69593674 43 73 C41.32408505 74.65814502 39.65919702 76.32523931 38 78 C37.52984467 78.46625793 37.05968933 78.93251587 36.57528687 79.41290283 C28.33113918 87.82247962 25.61485312 94.63171521 25.67773438 106.3828125 C25.72144879 108.04690716 25.76638482 109.71097014 25.8125 111.375 C25.8194775 113.09373695 25.82146122 114.81250169 25.81835938 116.53125 C25.81234507 120.69315093 25.90795879 124.83460031 26 129 C17.42 129 8.84 129 0 129 C0 86.43 0 43.86 0 0 Z " fill="#030201" transform="translate(272,293)"/>
<path d="M0 0 C8.82114376 6.286035 13.0584017 16.11610772 15.25170898 26.42285156 C15.95120008 30.62228303 16.04696079 34.77297449 16.0390625 39.0234375 C16.03664551 40.39278442 16.03664551 40.39278442 16.03417969 41.78979492 C15.81246243 54.18531118 12.90908361 67.98737199 4.30859375 77.4453125 C-2.99763514 83.9011727 -10.14646439 85.85692612 -19.81640625 85.40625 C-28.07304651 84.21494785 -33.3041226 79.77803787 -38.546875 73.48046875 C-47.67663523 60.30411174 -48.88111249 43.59589502 -46.8359375 28.11328125 C-44.63164065 16.60334486 -40.70974469 7.28179924 -31.3359375 -0.1015625 C-21.50295486 -6.70664003 -10.00834063 -5.62474025 0 0 Z " fill="#FC8F4C" transform="translate(205.3359375,317.1015625)"/>
<path d="M0 0 C12.21 0 24.42 0 37 0 C35.82959705 15.21523837 35.82959705 15.21523837 33.375 22.125 C33.10993652 22.88925293 32.84487305 23.65350586 32.57177734 24.44091797 C27.07657618 39.59357469 17.0248652 50.18763064 3 58 C2.01 58 1.02 58 0 58 C0 38.86 0 19.72 0 0 Z " fill="#F88D4B" transform="translate(282,117)"/>
<path d="M0 0 C12.21 0 24.42 0 37 0 C37 18.81 37 37.62 37 57 C31.42404007 51.42404007 31.42404007 51.42404007 28.74194336 48.72607422 C25.50539589 45.47174032 22.2658103 42.22044943 19.02514648 38.97021484 C17.63069958 37.57071264 16.23714776 36.17031804 14.84448242 34.76904297 C12.82446329 32.73689088 10.80122838 30.70798893 8.77734375 28.6796875 C8.15746078 28.05464325 7.53757782 27.429599 6.89891052 26.78561401 C4.5361766 24.42257461 2.27197535 22.20286596 -0.41064453 20.2019043 C-0.93513184 19.80527588 -1.45961914 19.40864746 -2 19 C-2.20703125 17.08984375 -2.20703125 17.08984375 -1.8125 14.9375 C-0.99808684 9.98837389 -0.49907953 4.9907953 0 0 Z " fill="#FB8F4B" transform="translate(338,117)"/>
<path d="M0 0 C33.33 0 66.66 0 101 0 C101 3.63 101 7.26 101 11 C67.67 11 34.34 11 0 11 C0 7.37 0 3.74 0 0 Z " fill="#FF914D" transform="translate(119,100)"/>
<path d="M0 0 C1.53912229 0.08354112 3.07818479 0.16819046 4.6171875 0.25390625 C6.17954568 0.3041064 7.74205815 0.34972704 9.3046875 0.390625 C13.12101198 0.50046328 16.92990392 0.67271684 20.7421875 0.87890625 C17.87707324 3.89094945 15.71461918 5.55476236 11.7421875 6.87890625 C12.5259375 7.64203125 13.3096875 8.40515625 14.1171875 9.19140625 C16.7421875 11.87890625 16.7421875 11.87890625 18.7421875 14.87890625 C5.73752234 15.48640459 -7.23675172 16.06671001 -20.2578125 15.87890625 C-19.82686279 14.80455322 -19.82686279 14.80455322 -19.38720703 13.70849609 C-18.66410099 11.89682315 -17.97881083 10.06930983 -17.34326172 8.22509766 C-13.63933346 -0.17016011 -8.29787666 -0.27784827 0 0 Z " fill="#F58B4A" transform="translate(174.2578125,126.12109375)"/>
</svg>
