<?xml version="1.0" encoding="UTF-8"?>
<svg version="1.1" xmlns="http://www.w3.org/2000/svg" width="500" height="500">
<path d="M0 0 C165 0 330 0 500 0 C500 165 500 330 500 500 C335 500 170 500 0 500 C0 335 0 170 0 0 Z " fill="#FE904C" transform="translate(0,0)"/>
<path d="M0 0 C13.54715832 11.61184999 20.7189486 27.27690418 22.1328125 44.890625 C23.40769542 68.45739275 19.89927218 89.68778904 3.7578125 107.953125 C-5.80877322 117.2045325 -19.87834999 122.28488566 -32.9296875 122.203125 C-33.86345215 122.19748535 -34.7972168 122.1918457 -35.75927734 122.18603516 C-51.56141531 121.9099556 -64.04835233 117.34147749 -75.5859375 106.3515625 C-90.60395704 90.15061676 -93.68098748 68.27329377 -92.97216797 47.05273438 C-92.18038557 30.74569964 -85.99737735 13.80254279 -73.8671875 2.51171875 C-52.45789806 -14.8415139 -22.37298493 -16.45968918 0 0 Z " fill="#020100" transform="translate(224.8671875,302.109375)"/>
<path d="M0 0 C4.87310005 0.64598366 9.63131839 1.50971736 14.4375 2.5625 C15.67371094 2.83191406 16.90992188 3.10132812 18.18359375 3.37890625 C19.57771484 3.68634766 19.57771484 3.68634766 21 4 C19.02 6.64 17.04 9.28 15 12 C16.00788574 11.9685791 17.01577148 11.9371582 18.05419922 11.90478516 C21.83723261 11.79518405 25.62012956 11.72694652 29.40429688 11.67041016 C31.03376965 11.64046135 32.66308433 11.59968578 34.29199219 11.54736328 C44.32431577 11.23346849 51.90097198 11.21212171 60 18 C56.65865611 32.58931811 41.57257098 45.52539603 30 54 C33.45207476 55.96529009 36.88476226 56.7746477 40.75 57.625 C41.92046875 57.88539063 43.0909375 58.14578125 44.296875 58.4140625 C45.18890625 58.60742188 46.0809375 58.80078125 47 59 C46.04367001 60.29315061 45.08486149 61.58446853 44.125 62.875 C43.59132813 63.59429687 43.05765625 64.31359375 42.5078125 65.0546875 C41 67 41 67 39 69 C39.88147705 68.9685791 40.7629541 68.9371582 41.67114258 68.90478516 C44.99446883 68.80149641 48.31605046 68.72682486 51.64038086 68.67041016 C53.06904286 68.64054266 54.49752649 68.59983092 55.92553711 68.54736328 C65.65222971 68.19937217 72.7914631 69.19457364 81 75 C77.47281225 94.47843835 59.51076494 111.4380514 44.06640625 122.32421875 C37.73663561 126.6106522 30.94198236 129.84181451 24 133 C22.84886719 133.54398438 21.69773437 134.08796875 20.51171875 134.6484375 C2.1367592 142.99876514 -18.05299453 146.67517419 -38 149 C-38.98293267 146.75157909 -39.96144466 144.50140453 -40.9375 142.25 C-41.35418945 141.29867187 -41.35418945 141.29867187 -41.77929688 140.328125 C-43.10720894 137.25632842 -44.34366167 134.28999974 -45 131 C-43.59427734 130.88785156 -43.59427734 130.88785156 -42.16015625 130.7734375 C-22.85630619 128.98929378 -4.04468473 123.9994513 14 117 C14 116.34 14 115.68 14 115 C11.63944406 113.10264749 9.2744489 111.31907191 6.8125 109.5625 C6.13896484 109.07201172 5.46542969 108.58152344 4.77148438 108.07617188 C2.86197646 106.69573737 0.93480349 105.34464904 -1 104 C-1.88300781 103.36964844 -2.76601562 102.73929687 -3.67578125 102.08984375 C-6.69366423 100.6747356 -7.85653101 100.952177 -11 102 C-13.35096976 102.9578025 -15.68351201 103.96157435 -18 105 C-22.00783889 106.79661743 -25.64569372 108.34025662 -30 109 C-31.33918806 107.37982158 -32.6711969 105.75370657 -34 104.125 C-34.7425 103.22007812 -35.485 102.31515625 -36.25 101.3828125 C-38 99 -38 99 -38 97 C-39.485 96.505 -39.485 96.505 -41 96 C-41 95.34 -41 94.68 -41 94 C-40.47792969 93.82984375 -39.95585938 93.6596875 -39.41796875 93.484375 C-18.70232358 86.66381232 1.62130613 77.82586059 18 63 C18 62.67 18 62.34 18 62 C17.03964844 62.54527344 16.07929688 63.09054688 15.08984375 63.65234375 C-3.38493625 73.91432364 -29.29468373 87.40849806 -51 86 C-53.66666667 80.66666667 -56.33333333 75.33333333 -59 70 C-57.96166016 69.7980603 -57.96166016 69.7980603 -56.90234375 69.59204102 C-39.90354422 66.21999654 -24.02574437 61.60078121 -8 55 C-8 54.34 -8 53.68 -8 53 C-10.68396485 50.81343974 -13.68800212 49.07594752 -16.625 47.25 C-17.43324219 46.71761719 -18.24148437 46.18523437 -19.07421875 45.63671875 C-23.79761336 42.57116786 -23.79761336 42.57116786 -29.23046875 42.5078125 C-30.14441406 43.00023437 -31.05835937 43.49265625 -32 44 C-33.42892578 44.63808594 -33.42892578 44.63808594 -34.88671875 45.2890625 C-36.76229496 46.18368881 -38.6372906 47.07953326 -40.51171875 47.9765625 C-43 49 -43 49 -46 49 C-47.68359375 47.20703125 -47.68359375 47.20703125 -49.4375 44.8125 C-50.01371094 44.03519531 -50.58992188 43.25789063 -51.18359375 42.45703125 C-51.78300781 41.64621094 -52.38242188 40.83539063 -53 40 C-54.32678271 38.32811388 -55.65841278 36.6600299 -57 35 C-56.37738281 34.75507812 -55.75476563 34.51015625 -55.11328125 34.2578125 C-24.05158364 22.14675812 -24.05158364 22.14675812 0 0 Z " fill="#040201" transform="translate(158,72)"/>
<path d="M0 0 C8.58 0 17.16 0 26 0 C26.33 18.15 26.66 36.3 27 55 C35.07346328 44.50835892 35.07346328 44.50835892 43.125 34 C43.6514209 33.31139893 44.1778418 32.62279785 44.72021484 31.91333008 C49.36003815 25.84178603 53.99329405 19.76523776 58.625 13.6875 C59.31223145 12.78580078 59.99946289 11.88410156 60.70751953 10.95507812 C61.35317871 10.10751953 61.99883789 9.25996094 62.6640625 8.38671875 C63.23592285 7.63608154 63.8077832 6.88544434 64.39697266 6.11206055 C66.04014918 4.03664432 66.04014918 4.03664432 67.30737305 1.75024414 C69 0 69 0 71.91088867 -0.45410156 C73.0682251 -0.4331543 74.22556152 -0.41220703 75.41796875 -0.390625 C77.29838867 -0.37128906 77.29838867 -0.37128906 79.21679688 -0.3515625 C80.52712891 -0.31804687 81.83746094 -0.28453125 83.1875 -0.25 C84.5227601 -0.22993307 85.85804883 -0.21168262 87.19335938 -0.1953125 C90.46296146 -0.14809803 93.73112192 -0.08225184 97 0 C95.64255131 2.91616587 94.08255825 5.34662063 92.09375 7.87109375 C91.51987549 8.60360352 90.94600098 9.33611328 90.35473633 10.09082031 C89.43664185 11.25242676 89.43664185 11.25242676 88.5 12.4375 C87.22235747 14.06617191 85.94501526 15.69507946 84.66796875 17.32421875 C83.72703369 18.52183838 83.72703369 18.52183838 82.76708984 19.74365234 C79.63322865 23.74519216 76.54962245 27.78474981 73.46484375 31.82421875 C71.66026622 34.17024371 69.81081335 36.4748617 67.94140625 38.76953125 C67.43053467 39.40213867 66.91966309 40.03474609 66.39331055 40.68652344 C65.40420006 41.90863711 64.40730748 43.12450599 63.40161133 44.33300781 C60.77479898 47.59164542 60 48.66106035 60 53 C61.18582071 55.62121322 61.18582071 55.62121322 62.859375 58.375 C63.47417725 59.43195068 64.08897949 60.48890137 64.72241211 61.57788086 C65.39151611 62.70718018 66.06062012 63.83647949 66.75 65 C67.44277812 66.18264974 68.13491032 67.36567807 68.82641602 68.54907227 C73.75376035 76.96320199 78.76031951 85.33056637 83.796875 93.6796875 C87.41492341 99.68097941 91.00897465 105.69642956 94.59060669 111.71951294 C95.31726997 112.94044392 96.04501943 114.16072916 96.77389526 115.38034058 C97.79341162 117.08656045 98.80889923 118.79518564 99.82421875 120.50390625 C100.70726685 121.98612671 100.70726685 121.98612671 101.6081543 123.49829102 C103 126 103 126 104 129 C80.41990421 131.3122391 80.41990421 131.3122391 74.04833984 127.97900391 C70.96166988 124.92584827 69.63858367 120.72765599 68.15478516 116.74121094 C65.93896534 111.48133252 62.89373433 106.62762371 60.00915527 101.71228027 C58.96916306 99.92928417 57.94648643 98.13767887 56.93066406 96.34082031 C52.46185141 88.44436397 47.80497605 80.69593674 43 73 C41.32408505 74.65814502 39.65919702 76.32523931 38 78 C37.52984467 78.46625793 37.05968933 78.93251587 36.57528687 79.41290283 C28.33113918 87.82247962 25.61485312 94.63171521 25.67773438 106.3828125 C25.72144879 108.04690716 25.76638482 109.71097014 25.8125 111.375 C25.8194775 113.09373695 25.82146122 114.81250169 25.81835938 116.53125 C25.81234507 120.69315093 25.90795879 124.83460031 26 129 C17.42 129 8.84 129 0 129 C0 86.43 0 43.86 0 0 Z " fill="#030201" transform="translate(272,293)"/>
<path d="M0 0 C25.41 0 50.82 0 77 0 C77 5.28 77 10.56 77 16 C67.1 16.33 57.2 16.66 47 17 C46.01 20.3 45.02 23.6 44 27 C53.57 27 63.14 27 73 27 C73 54.39 73 81.78 73 110 C50.23 110 27.46 110 4 110 C4 82.28 4 54.56 4 26 C10.93 26 17.86 26 25 26 C25.33 22.7 25.66 19.4 26 16 C17.42 16 8.84 16 0 16 C0 10.72 0 5.44 0 0 Z " fill="#030100" transform="translate(324,79)"/>
<path d="M0 0 C8.82114376 6.286035 13.0584017 16.11610772 15.25170898 26.42285156 C15.95120008 30.62228303 16.04696079 34.77297449 16.0390625 39.0234375 C16.03664551 40.39278442 16.03664551 40.39278442 16.03417969 41.78979492 C15.81246243 54.18531118 12.90908361 67.98737199 4.30859375 77.4453125 C-2.99763514 83.9011727 -10.14646439 85.85692612 -19.81640625 85.40625 C-28.07304651 84.21494785 -33.3041226 79.77803787 -38.546875 73.48046875 C-47.67663523 60.30411174 -48.88111249 43.59589502 -46.8359375 28.11328125 C-44.63164065 16.60334486 -40.70974469 7.28179924 -31.3359375 -0.1015625 C-21.50295486 -6.70664003 -10.00834063 -5.62474025 0 0 Z " fill="#FC8F4C" transform="translate(205.3359375,317.1015625)"/>
<path d="M0 0 C18.48 0 36.96 0 56 0 C56 14.85 56 29.7 56 45 C37.52 45 19.04 45 0 45 C0 30.15 0 15.3 0 0 Z " fill="#040201" transform="translate(261,108)"/>
<path d="M0 0 C5.7809725 0.63065155 11.3443706 1.65155132 17 3 C18.53655074 6.95392675 17.40642735 9.80463797 16.1875 13.75 C15.81496094 14.98492187 15.44242187 16.21984375 15.05859375 17.4921875 C14.53458984 19.22855469 14.53458984 19.22855469 14 21 C13.29465109 23.65951227 12.64214239 26.32440672 12 29 C16.62 28.67 21.24 28.34 26 28 C26 33.28 26 38.56 26 44 C15.23148822 46.92672532 4.43174892 49.60171744 -6.4375 52.125 C-8.67976209 52.64753949 -10.92186341 53.17075916 -13.16383362 53.69454956 C-14.54053578 54.01598477 -15.91742258 54.33663081 -17.29454041 54.65628052 C-20.61905397 55.43047831 -23.92843048 56.24221384 -27.23071289 57.10498047 C-31.08562964 58.02033281 -34.07727138 58.16344703 -38 58 C-38.66969591 55.5424552 -39.3358768 53.08405076 -40 50.625 C-40.19078125 49.92632812 -40.3815625 49.22765625 -40.578125 48.5078125 C-42 43.2265625 -42 43.2265625 -42 41 C-41.30551758 40.86424561 -40.61103516 40.72849121 -39.89550781 40.58862305 C-36.679703 39.95810971 -33.46485738 39.32282572 -30.25 38.6875 C-28.61224609 38.36749023 -28.61224609 38.36749023 -26.94140625 38.04101562 C-19.56593172 36.57901328 -12.27664736 34.89321185 -5 33 C-4.814375 31.0509375 -4.814375 31.0509375 -4.625 29.0625 C-4.28057627 25.93358016 -3.80234763 22.93342523 -3.0625 19.875 C-1.51420957 13.3442411 -0.82396185 6.65305365 0 0 Z " fill="#050301" transform="translate(296,155)"/>
<path d="M0 0 C20.79 0 41.58 0 63 0 C63 5.61 63 11.22 63 17 C42.21 17 21.42 17 0 17 C0 11.39 0 5.78 0 0 Z " fill="#000000" transform="translate(257,80)"/>
<path d="M0 0 C4.82658073 0.38472745 7.88677755 1.88747275 11.875 4.5625 C12.84179688 5.20316406 13.80859375 5.84382812 14.8046875 6.50390625 C15.52914062 6.99761719 16.25359375 7.49132812 17 8 C15.70176086 11.89471741 13.34438381 13.33355101 10.125 15.625 C9.52091309 16.05796387 8.91682617 16.49092773 8.29443359 16.93701172 C0.4286152 22.35743676 -8.278379 26.17502217 -17 30 C-18.10620047 29.05815039 -19.21149061 28.11523155 -20.31640625 27.171875 C-21.23981812 26.38441895 -21.23981812 26.38441895 -22.18188477 25.58105469 C-24.59455833 23.48296499 -26.83819138 21.35833668 -29 19 C-29 18.34 -29 17.68 -29 17 C-27.35064453 16.27296875 -27.35064453 16.27296875 -25.66796875 15.53125 C-16.49802497 11.40415234 -7.22839226 7.22839226 0 0 Z " fill="#050301" transform="translate(341,191)"/>
<path d="M0 0 C6.23875466 3.77575933 12.24854796 7.78965181 18.0625 12.1875 C18.62219482 12.60306152 19.18188965 13.01862305 19.75854492 13.44677734 C22.66691881 15.68178828 24.71192231 17.51979009 26 21 C24.09119643 22.34456604 22.17264729 23.67530521 20.25 25 C19.18265625 25.7425 18.1153125 26.485 17.015625 27.25 C14 29 14 29 10 29 C7.66015625 27.12890625 7.66015625 27.12890625 5.0625 24.5625 C-0.84649494 18.96492506 -7.21383738 14.46656808 -14 10 C-11.16667533 6.95483798 -8.34499689 4.83131399 -4.75 2.75 C-3.85796875 2.22921875 -2.9659375 1.7084375 -2.046875 1.171875 C-1.03367187 0.59179688 -1.03367187 0.59179688 0 0 Z " fill="#060301" transform="translate(379,191)"/>
<path d="M0 0 C0.81134903 0.00565979 1.62269806 0.01131958 2.45863342 0.01715088 C5.02643175 0.0393758 7.5927864 0.08954265 10.16015625 0.140625 C11.91078701 0.1607081 13.66143984 0.17895569 15.41210938 0.1953125 C19.68284003 0.23919456 23.95250418 0.30812225 28.22265625 0.390625 C26.52393692 5.08787136 24.01718046 8.01666555 20.47265625 11.453125 C19.70308594 12.2275293 19.70308594 12.2275293 18.91796875 13.01757812 C15.58883367 16.30070757 12.18872123 18.914803 8.22265625 21.390625 C4.48504542 19.69915149 1.2413144 17.37978125 -2.08984375 15.015625 C-6.53612137 11.8936909 -10.98421051 8.95439394 -15.77734375 6.390625 C-15.77734375 5.730625 -15.77734375 5.070625 -15.77734375 4.390625 C-10.28631363 0.71510049 -6.54166102 -0.1746681 0 0 Z " fill="#FB8E4B" transform="translate(183.77734375,157.609375)"/>
<path d="M0 0 C0.84793248 3.01692571 1.67562781 6.03905931 2.5 9.0625 C2.73847656 9.91005859 2.97695313 10.75761719 3.22265625 11.63085938 C4.56184901 16.5858726 5.27852904 20.86810247 5 26 C2.89748139 26.67184618 0.79292237 27.33730968 -1.3125 28 C-3.07013672 28.556875 -3.07013672 28.556875 -4.86328125 29.125 C-8 30 -8 30 -11 30 C-11.10957031 29.06800781 -11.21914063 28.13601562 -11.33203125 27.17578125 C-12.39470661 18.63118019 -13.8851158 10.3608422 -16 2 C-14.27507022 1.46530198 -12.544802 0.94780825 -10.8125 0.4375 C-9.36810547 0.00244141 -9.36810547 0.00244141 -7.89453125 -0.44140625 C-4.87247412 -1.02461026 -2.94070045 -0.81178385 0 0 Z " fill="#050201" transform="translate(279,158)"/>
<path d="M0 0 C0.83920486 0.0028299 1.67840973 0.00565979 2.54304504 0.00857544 C5.22285228 0.01976865 7.90232506 0.04487149 10.58203125 0.0703125 C12.39908371 0.08034342 14.21614142 0.08946907 16.03320312 0.09765625 C20.487108 0.11970516 24.94076292 0.15422899 29.39453125 0.1953125 C27.63158124 3.34315401 26.06158794 5.79107096 23.21484375 8.01953125 C22.61542969 8.49068359 22.01601562 8.96183594 21.3984375 9.44726562 C20.77839844 9.92099609 20.15835938 10.39472656 19.51953125 10.8828125 C18.60107422 11.61081055 18.60107422 11.61081055 17.6640625 12.35351562 C11.26807019 17.31828482 11.26807019 17.31828482 7.39453125 18.1953125 C5.578125 17.32421875 5.578125 17.32421875 3.83203125 15.7578125 C-1.24551463 11.53789433 -6.86726124 8.42783606 -12.60546875 5.1953125 C-10.52747466 -1.03866976 -5.58988502 -0.07073751 0 0 Z " fill="#FA8E4B" transform="translate(160.60546875,99.8046875)"/>
<path d="M0 0 C11.55 0 23.1 0 35 0 C35 3.63 35 7.26 35 11 C23.45 11 11.9 11 0 11 C0 7.37 0 3.74 0 0 Z " fill="#E58245" transform="translate(345,165)"/>
<path d="M0 0 C7.59 0 15.18 0 23 0 C23 4.95 23 9.9 23 15 C15.41 15 7.82 15 0 15 C0 10.05 0 5.1 0 0 Z " fill="#FC8F4C" transform="translate(277,123)"/>
<path d="M0 0 C11.22 0 22.44 0 34 0 C34 3.3 34 6.6 34 10 C22.78 10 11.56 10 0 10 C0 6.7 0 3.4 0 0 Z " fill="#F88D4B" transform="translate(345,142)"/>
<path d="M0 0 C11.22 0 22.44 0 34 0 C34 3.3 34 6.6 34 10 C22.78 10 11.56 10 0 10 C0 6.7 0 3.4 0 0 Z " fill="#F58B4A" transform="translate(345,119)"/>
<path d="M0 0 C0.66 0.33 1.32 0.66 2 1 C0.02 2.98 -1.96 4.96 -4 7 C-4.99 6.67 -5.98 6.34 -7 6 C-4.74259377 3.66475218 -2.7194239 1.81294927 0 0 Z " fill="#D67940" transform="translate(177,132)"/>
</svg>
